<?xml version="1.0" standalone="no"?><!DOCTYPE svg PUBLIC "-//W3C//DTD SVG 1.1//EN" "http://www.w3.org/Graphics/SVG/1.1/DTD/svg11.dtd"><svg t="1608776928317" class="icon" viewBox="0 0 1024 1024" version="1.1" xmlns="http://www.w3.org/2000/svg" p-id="7839" xmlns:xlink="http://www.w3.org/1999/xlink" width="200" height="200"><defs><style type="text/css"></style></defs><path d="M702.2 588.4c-41 60.7-105.7 102.1-178.2 114.1L655.6 833c23.5 23.3 60.2 27 87.9 8.7 27.7-18.3 38.7-53.6 26.4-84.4l-67.7-168.9z" fill="#FFD45A" p-id="7840"></path><path d="M787.3 750.4l-64-159.7c17.9-28.7 30.8-60.7 37.7-94.8 15.3-75 0.4-151.5-41.8-215.3-42.2-63.9-106.8-107.5-181.8-122.8-75-15.3-151.5-0.5-215.3 41.8-63.8 42.2-107.4 106.8-122.7 181.8-31.5 154.8 68.7 306.4 223.6 338 19.3 3.9 38.6 5.9 57.8 5.9 12.4 0 24.8-0.8 37-2.4l124.6 123.6c17 16.9 39.8 25.6 62.6 25.6 16.9 0 34-4.8 48.8-14.6 35.1-23.2 49.1-68.2 33.5-107.1zM236.2 388.9c13.3-65.2 51.2-121.3 106.6-158 41.2-27.3 88.5-41.4 136.9-41.4 16.7 0 33.5 1.7 50.3 5.1 65.2 13.3 121.3 51.2 158 106.7 21.7 32.8 35.1 69.4 39.6 107.3-3 0.3-5.9 1.2-8.6 3L354.2 650.4c-0.8 0.5-1.5 1.1-2.2 1.7-87.8-52.8-137.4-157.2-115.8-263.2z m194.3 293.8c-13.7-2.8-26.8-6.7-39.4-11.5l338-221.4c-0.6 12.8-2.2 25.7-4.8 38.6-6.5 31.9-18.9 61.6-36.3 87.9-0.5 0.5-0.9 1.1-1.3 1.7-38 56.3-98.4 95-165.7 106.1-1.1 0.2-2.2 0.5-3.2 0.8-28.7 4.4-58.1 3.7-87.3-2.2z m302.7 143.4c-20.1 13.3-47.2 10.6-64.4-6.4L561.7 713.5c26.8-8 52.6-20 76.7-35.9 22.1-14.6 41.8-32 58.8-51.5l55.4 138.2c8.9 22.5 0.8 48.5-19.4 61.8z" fill="#593A25" p-id="7841"></path></svg>